# xmcd
#
# Track frame offsets:
#	150
#	17605
#	31494
#	43660
#	56970
#	70817
#	96162
#	119232
#	142245
#	167580
#	181847
#	196255
#	210267
#	228440
#	242845
#	262365
#	278640
#	292932
#
# Disc length: 4094 seconds
#
# Revision: 0
# Processed by: cddbd v1.5.1PL0 Copyright (c) Steve Scherf et al.
# Submitted via: dBpowerAMP V4.0
#
DISCID=120ffc12
DTITLE=Orquesta Aragon - La Cubanisima Orquesta Aragon
DYEAR=1900
DGENRE=Latin
TTITLE0=Guantanamera
TTITLE1=El Bodeguero
TTITLE2=Cachita
TTITLE3=Pare cochero
TTITLE4=El Manicero
TTITLE5=Aprende muchacho
TTITLE6=Eso no tiene remedio
TTITLE7=No me voy a disgustar
TTITLE8=Son al son
TTITLE9=Caserita Villarena
TTITLE10=Los pescadores de varadero
TTITLE11=La Gloria eres tu
TTITLE12=Sin clave y bongo no hay son
TTITLE13=Preguntame como estoy
TTITLE14=El cerquillo
TTITLE15=Voy hablar con tu Papa
TTITLE16=Suavecito
TTITLE17=Que bonito esta el Domingo
EXTD=La cubanisima orquesta aragon\n\n\n\n\n\n\n
EXTT0=
EXTT1=
EXTT2=
EXTT3=
EXTT4=
EXTT5=
EXTT6=
EXTT7=
EXTT8=
EXTT9=
EXTT10=
EXTT11=
EXTT12=
EXTT13=
EXTT14=
EXTT15=
EXTT16=
EXTT17=
PLAYORDER=
